<?xml version="1.0" standalone="no"?><!DOCTYPE svg PUBLIC "-//W3C//DTD SVG 1.1//EN" "http://www.w3.org/Graphics/SVG/1.1/DTD/svg11.dtd"><svg t="1724653548852" class="icon" viewBox="0 0 1024 1024" version="1.1" xmlns="http://www.w3.org/2000/svg" p-id="22575" xmlns:xlink="http://www.w3.org/1999/xlink" width="200" height="200"><path d="M417.776802 291.960303m31.513848 5.556742l288.131114 50.805289q31.513848 5.556742 25.957106 37.07059l-55.567417 315.138481q-5.556742 31.513848-37.07059 25.957107l-288.131113-50.80529q-31.513848-5.556742-25.957106-37.070589l55.567417-315.138481q5.556742-31.513848 37.070589-25.957107Z" fill="#F7D2D3" p-id="22576"></path><path d="M410.72 160.736l409.696 72.256a96 96 0 0 1 77.856 111.2l-77.76 441.184A96 96 0 0 1 709.248 863.264l-148.672-26.24-0.064 1.184a24 24 0 0 1-20.512 20.512l-3.264 0.224H192a88 88 0 0 1-87.84-82.656L104 770.944V435.648a88 88 0 0 1 82.624-87.84l5.376-0.16h32a24 24 0 0 1 3.264 47.776l-3.264 0.224h-32A40 40 0 0 0 152.192 431.584l-0.192 4.096v335.296c0 20.704 15.744 37.76 35.904 39.808l4.096 0.192 220.48-0.032-112.896-19.904a96 96 0 0 1-77.856-111.2L299.488 238.624A96 96 0 0 1 410.752 160.736zM347.84 242.464l-1.024 4.512-77.792 441.184a48 48 0 0 0 34.432 54.592l4.48 1.024 409.696 72.224a48 48 0 0 0 54.592-34.4l1.024-4.512 77.792-441.216a48 48 0 0 0-34.432-54.56l-4.48-1.024L402.368 208A48 48 0 0 0 347.808 242.464z m260.192 272.48c9.6 0 16 6.272 16 15.68 0 26.624-20.8 46.976-48 46.976s-48-20.352-48-46.976c0-9.408 6.4-15.68 16-15.68s16 6.272 16 15.68c0 9.376 6.4 15.68 16 15.68s16-6.304 16-15.68c0-9.408 6.4-15.68 16-15.68zM520 420.928c12.8 0 24 10.944 24 23.488 0 12.544-11.2 23.488-24 23.488s-24-10.944-24-23.488c0-12.544 11.2-23.488 24-23.488z m112 0c12.8 0 24 10.944 24 23.488 0 12.544-11.2 23.488-24 23.488s-24-10.944-24-23.488c0-12.544 11.2-23.488 24-23.488z" fill="#333333" p-id="22577"></path></svg>