<?xml version="1.0" standalone="no"?><!DOCTYPE svg PUBLIC "-//W3C//DTD SVG 1.1//EN" "http://www.w3.org/Graphics/SVG/1.1/DTD/svg11.dtd"><svg t="1728528163919" class="icon" viewBox="0 0 1024 1024" version="1.1" xmlns="http://www.w3.org/2000/svg" p-id="2508" xmlns:xlink="http://www.w3.org/1999/xlink" width="200" height="200"><path d="M805.973333 407.466667A42.666667 42.666667 0 0 0 768 384h-213.333333V128a42.666667 42.666667 0 0 0-77.653334-24.32l-298.666666 426.666667a42.666667 42.666667 0 0 0-2.986667 42.666666A42.666667 42.666667 0 0 0 213.333333 597.333333h170.666667v298.666667a42.666667 42.666667 0 0 0 29.44 40.533333A47.786667 47.786667 0 0 0 426.666667 938.666667a42.666667 42.666667 0 0 0 34.56-17.493334l341.333333-469.333333a42.666667 42.666667 0 0 0 3.413333-44.373333z" fill="#FE9517" p-id="2509"></path><path d="M426.666667 938.666667a47.786667 47.786667 0 0 1-13.226667 0A42.666667 42.666667 0 0 1 384 896v-298.666667H213.333333a42.666667 42.666667 0 0 1-37.973333-23.04 42.666667 42.666667 0 0 1 2.986667-42.666666l298.666666-426.666667A42.666667 42.666667 0 0 1 554.666667 128v256h213.333333a42.666667 42.666667 0 0 1 37.973333 23.466667 42.666667 42.666667 0 0 1-3.413333 42.666666l-341.333333 469.333334A42.666667 42.666667 0 0 1 426.666667 938.666667zM295.253333 512H426.666667a42.666667 42.666667 0 0 1 42.666666 42.666667v209.92L682.666667 469.333333h-170.666667a42.666667 42.666667 0 0 1-42.666667-42.666666V263.253333z" fill="#486675" p-id="2510"></path></svg>