<?xml version="1.0" standalone="no"?><!DOCTYPE svg PUBLIC "-//W3C//DTD SVG 1.1//EN" "http://www.w3.org/Graphics/SVG/1.1/DTD/svg11.dtd"><svg t="1728528416974" class="icon" viewBox="0 0 1024 1024" version="1.1" xmlns="http://www.w3.org/2000/svg" p-id="15549" xmlns:xlink="http://www.w3.org/1999/xlink" width="200" height="200"><path d="M341.333333 85.333333H213.333333a128 128 0 0 0-128 128v128a128 128 0 0 0 128 128h128a128 128 0 0 0 128-128V213.333333a128 128 0 0 0-128-128zM213.333333 170.666667h128a42.666667 42.666667 0 0 1 42.666667 42.666666v128a42.666667 42.666667 0 0 1-42.666667 42.666667H213.333333a42.666667 42.666667 0 0 1-42.666666-42.666667V213.333333a42.666667 42.666667 0 0 1 42.666666-42.666666z m128 384H213.333333a128 128 0 0 0-128 128v128a128 128 0 0 0 128 128h128a128 128 0 0 0 128-128v-128a128 128 0 0 0-128-128z m-128 85.333333h128a42.666667 42.666667 0 0 1 42.666667 42.666667v128a42.666667 42.666667 0 0 1-42.666667 42.666666H213.333333a42.666667 42.666667 0 0 1-42.666666-42.666666v-128a42.666667 42.666667 0 0 1 42.666666-42.666667z m597.333334-85.333333h-128a128 128 0 0 0-128 128v128a128 128 0 0 0 128 128h128a128 128 0 0 0 128-128v-128a128 128 0 0 0-128-128z m-128 85.333333h128a42.666667 42.666667 0 0 1 42.666666 42.666667v128a42.666667 42.666667 0 0 1-42.666666 42.666666h-128a42.666667 42.666667 0 0 1-42.666667-42.666666v-128a42.666667 42.666667 0 0 1 42.666667-42.666667z" fill="#333333" p-id="15550"></path><path d="M927.701333 186.837333L837.12 96.298667a128 128 0 0 0-180.992 0L565.632 186.88a128 128 0 0 0 0 180.992l90.538667 90.538667a128 128 0 0 0 180.992 0l90.538666-90.538667a128 128 0 0 0 0-180.992z m-150.869333-30.165333l90.496 90.453333a42.666667 42.666667 0 0 1 0 60.373334l-90.453333 90.496a42.666667 42.666667 0 0 1-60.373334 0l-90.496-90.453334a42.666667 42.666667 0 0 1 0-60.373333l90.453334-90.496a42.666667 42.666667 0 0 1 60.373333 0z" fill="#1AB370" p-id="15551"></path></svg>